{"title":"Salt CAM XViD-KiNGDOM","uid":5733955,"size":1584370437,"categoryP":"video","categoryS":"movies","magnet":"?xt=urn:btih:03e3c5fc6ddb5c1fe1244b78174353ef481954bb&amp;dn=Salt+CAM+XViD-KiNGDOM&amp;tr=udp%3A%2F%2Ftracker.openbittorrent.com%3A80&amp;tr=udp%3A%2F%2Fopen.demonii.com%3A1337&amp;tr=udp%3A%2F%2Ftracker.coppersurfer.tk%3A6969&amp;tr=udp%3A%2F%2Fexodus.desync.com%3A6969","seeders":0,"leechers":1,"uploader":"hiest","files":4,"time":1280750012,"description":"As a CIA officer, Evelyn Salt swore an oath to duty, honor and country. Her loyalty will be tested when a defector accuses her of being a Russian spy. Salt goes on the run, using all her skills and years of experience as a covert operative to elude capture. Salts efforts to prove her innocence only serve to cast doubt on her motives, as the hunt to uncover the truth behind her identity continues and the question remains   Who is Salt\n\n\n  &lt;a href=&quot;\nhttp://www.imdb.com/title/tt0944835/&quot; rel=&quot;nofollow&quot; target=&quot;_NEW&quot;&gt;\nhttp://www.imdb.com/title/tt0944835/&lt;/a&gt;\nMOVIEmeter: Up 466% in popularity this week.\nGenre:Action | Thriller \nUser Rating:6.7/10 \n\n\n \nVideo\nID : 0\nFormat : MPEG-4 Visual\nFormat profile : Advanced Simple@L5\nFormat settings, BVOP : Yes\nFormat settings, QPel : No\nFormat settings, GMC : No warppoints\nFormat settings, Matrix : Default (H.263)\nMuxing mode : Packed bitstream\nCodec ID : XVID\nCodec ID/Hint : XviD\nDuration : 1h 30mn\nBit rate : 2 045 Kbps\nWidth : 720 pixels\nHeight : 288 pixels\nDisplay aspect ratio : 2.500\nFrame rate : 25.000 fps\nResolution : 8 bits\nColorimetry : 4:2:0\nScan type : Progressive\nBits/(Pixel*Frame) : 0.394\nStream size : 1.30 GiB (89%)\nWriting library : XviD 1.2.1 (UTC 2008-12-04)\n\nAudio\nID : 1\nFormat : MPEG Audio\nCodec ID : 55\nCodec ID/Hint : MP3\nDuration : 1h 30mn\nBit rate : 256 Kbps\nChannel(s) : 2 channels\nSampling rate : 48.0 KHz\nStream size : 166 MiB (11%)\nAlignment : Split accross interleaves\nInterleave, duration : 40 ms (1.00 video frame)\nInterleave, preload duration : 500 ms\n\n\n\nScreenshots:\n &lt;a href=&quot;\nhttp://postimg.com/image/19000/18918.jpg&quot; rel=&quot;nofollow&quot; target=&quot;_NEW&quot;&gt;\nhttp://postimg.com/image/19000/18918.jpg&lt;/a&gt;","torrent":{"xt":"urn:btih:03e3c5fc6ddb5c1fe1244b78174353ef481954bb","amp;dn":"Salt+CAM+XViD-KiNGDOM","amp;tr":["udp%3A%2F%2Ftracker.openbittorrent.com%3A80","udp%3A%2F%2Fopen.demonii.com%3A1337","udp%3A%2F%2Ftracker.coppersurfer.tk%3A6969","udp%3A%2F%2Fexodus.desync.com%3A6969"],"infoHash":"03e3c5fc6ddb5c1fe1244b78174353ef481954bb","infoHashBuffer":{"type":"Buffer","data":[3,227,197,252,109,219,92,31,225,36,75,120,23,67,83,239,72,25,84,187]},"announce":[],"urlList":[]}}